<svg width="262" height="70" viewBox="0 0 262 70" fill="none" xmlns="http://www.w3.org/2000/svg">
<path d="M256.221 16.4595C256.497 16.4578 256.723 16.6803 256.724 16.9565L256.756 21.4565C256.757 21.7326 256.535 21.9579 256.259 21.9595C255.983 21.9612 255.758 21.7387 255.756 21.4626L255.728 17.4625L251.728 17.4868C251.452 17.4885 251.227 17.266 251.225 16.9898C251.223 16.7137 251.445 16.4885 251.721 16.4868L256.221 16.4595ZM1.39406 8.2715L1.70018 7.87642C24.1241 25.2605 67.3047 48.1152 115.076 56.2749C162.837 64.4327 215.117 57.8949 255.868 16.6081L256.224 16.9595L256.58 17.3109C215.525 58.9056 162.87 65.4527 114.909 57.2606C66.9583 49.0704 23.6275 26.1404 1.08794 8.66657L1.39406 8.2715Z" fill="#CCCCCC" fill-opacity="0.5"/>
<rect width="0.913362" height="8.97904" transform="matrix(0.978659 0.20623 0.175538 -0.984344 3.0293 15.6514)" fill="#020617"/>
<rect width="0.913362" height="8.97904" transform="matrix(0.97865 0.206272 0.175503 -0.98435 7.50439 18.77)" fill="#020617"/>
<rect width="0.913362" height="8.97904" transform="matrix(0.97865 0.206272 0.175503 -0.98435 13.8003 21.936)" fill="#020617"/>
<rect width="0.913362" height="8.97904" transform="matrix(0.97865 0.206272 0.175503 -0.98435 20.0962 25.102)" fill="#020617"/>
<rect width="0.913362" height="8.97904" transform="matrix(0.97865 0.206272 0.175503 -0.98435 26.3667 29.2685)" fill="#020617"/>
<rect width="0.913362" height="8.97904" transform="matrix(0.97865 0.206272 0.175503 -0.98435 31.752 32.4106)" fill="#020617"/>
<rect width="0.913362" height="8.97904" transform="matrix(0.97865 0.206272 0.175503 -0.98435 37.1631 34.5532)" fill="#020617"/>
<rect width="0.913362" height="8.97904" transform="matrix(0.97865 0.206272 0.175503 -0.98435 42.5488 37.6958)" fill="#020617"/>
<rect width="0.913362" height="8.97904" transform="matrix(0.97865 0.206272 0.175503 -0.98435 48.8447 40.8618)" fill="#020617"/>
<rect width="0.913362" height="8.97904" transform="matrix(0.97865 0.206272 0.175503 -0.98435 55.1411 44.0281)" fill="#020617"/>
<rect width="0.913362" height="8.97904" transform="matrix(0.97865 0.206272 0.175503 -0.98435 60.5522 46.1706)" fill="#020617"/>
<rect width="0.913362" height="8.97904" transform="matrix(0.97865 0.206272 0.175503 -0.98435 65.9878 47.314)" fill="#020617"/>
<rect width="0.913362" height="8.97904" transform="matrix(0.97865 0.206272 0.175503 -0.98435 71.3989 49.456)" fill="#020617"/>
<rect width="0.913362" height="8.97904" transform="matrix(0.97865 0.206272 0.175503 -0.98435 76.8101 51.5991)" fill="#020617"/>
<rect width="0.913362" height="8.97904" transform="matrix(0.97865 0.206272 0.175503 -0.98435 82.2461 52.7417)" fill="#020617"/>
<rect width="0.913362" height="8.97904" transform="matrix(0.97865 0.206272 0.175503 -0.98435 88.5928 53.9092)" fill="#020617"/>
<rect width="0.913362" height="8.97904" transform="matrix(0.97865 0.206272 0.175503 -0.98435 94.9395 55.0759)" fill="#020617"/>
<rect width="0.913362" height="8.97904" transform="matrix(0.97865 0.206272 0.175503 -0.98435 101.261 57.2427)" fill="#020617"/>
<rect width="0.914112" height="8.97286" transform="matrix(0.973142 0.230952 0.196352 -0.980386 107.295 64.5342)" fill="#020617"/>
<rect width="0.914112" height="8.97286" transform="matrix(0.973142 0.230952 0.196352 -0.980386 113.365 64.8198)" fill="#020617"/>
<rect width="0.914112" height="8.97286" transform="matrix(0.973142 0.230952 0.196352 -0.980386 119.434 65.1064)" fill="#020617"/>
<rect width="0.914112" height="8.97286" transform="matrix(0.973142 0.230952 0.196352 -0.980386 125.504 65.3921)" fill="#020617"/>
<rect width="0.914112" height="8.97286" transform="matrix(0.973142 0.230952 0.196352 -0.980386 131.573 65.6787)" fill="#020617"/>
<rect width="0.914112" height="8.97286" transform="matrix(0.973142 0.230952 0.196352 -0.980386 137.643 65.9643)" fill="#020617"/>
<rect width="0.914112" height="8.97286" transform="matrix(0.973142 0.230952 0.196352 -0.980386 143.712 66.2505)" fill="#020617"/>
<rect width="0.914112" height="8.97286" transform="matrix(0.973142 0.230952 0.196352 -0.980386 149.782 66.5366)" fill="#020617"/>
<rect width="0.914112" height="8.97286" transform="matrix(0.973142 0.230952 0.196352 -0.980386 155.851 66.8225)" fill="#020617"/>
<rect width="0.914112" height="8.97286" transform="matrix(0.973142 0.230952 0.196352 -0.980386 161.921 67.1089)" fill="#020617"/>
<rect width="0.914112" height="8.97286" transform="matrix(0.973142 0.230952 0.196352 -0.980386 167.991 67.3948)" fill="#020617"/>
<rect width="0.913152" height="8.98078" transform="matrix(0.988986 -0.147026 -0.118898 -0.993029 176.689 66.0864)" fill="#020617"/>
<rect width="0.913152" height="8.98078" transform="matrix(0.988986 -0.147026 -0.118898 -0.993029 182.493 64.0859)" fill="#020617"/>
<rect width="0.913152" height="8.98078" transform="matrix(0.988986 -0.147026 -0.118898 -0.993029 188.297 62.0862)" fill="#020617"/>
<rect width="0.913152" height="8.98078" transform="matrix(0.988986 -0.147026 -0.118898 -0.993029 194.101 60.0862)" fill="#020617"/>
<rect width="0.913152" height="8.98078" transform="matrix(0.988986 -0.147026 -0.118898 -0.993029 199.905 58.0867)" fill="#020617"/>
<rect width="0.913152" height="8.98078" transform="matrix(0.988986 -0.147026 -0.118898 -0.993029 205.709 56.0864)" fill="#020617"/>
<rect width="0.913152" height="8.98078" transform="matrix(0.988986 -0.147026 -0.118898 -0.993029 211.513 54.0867)" fill="#020617"/>
<rect width="0.913152" height="8.98078" transform="matrix(0.988986 -0.147026 -0.118898 -0.993029 217.317 52.0869)" fill="#020617"/>
<rect width="0.913152" height="8.98078" transform="matrix(0.988986 -0.147026 -0.118898 -0.993029 224.884 46.6467)" fill="#020617"/>
<rect width="0.944404" height="8.71508" transform="matrix(0.784065 -0.620002 -0.547594 -0.837222 234.159 40.8882)" fill="#020617"/>
<rect width="0.944404" height="8.71508" transform="matrix(0.784065 -0.620002 -0.547594 -0.837222 238.43 36.124)" fill="#020617"/>
<rect width="0.944404" height="8.71508" transform="matrix(0.784065 -0.620002 -0.547594 -0.837222 242.701 31.3599)" fill="#020617"/>
<rect width="0.944404" height="8.71508" transform="matrix(0.784065 -0.620002 -0.547594 -0.837222 246.973 26.5957)" fill="#020617"/>
<rect width="0.944404" height="8.71508" transform="matrix(0.784065 -0.620002 -0.547594 -0.837222 252.821 23.3718)" fill="#020617"/>
<rect width="0.944404" height="8.71508" transform="matrix(0.784065 -0.620002 -0.547594 -0.837222 260.332 14.5659)" fill="#020617"/>
</svg>
