<svg width="267" height="117" viewBox="0 0 267 117" fill="none" xmlns="http://www.w3.org/2000/svg">
<path d="M260.265 53.2613C260.536 53.2113 260.718 52.9504 260.669 52.6784L259.885 48.2463C259.837 47.9744 259.578 47.7944 259.306 47.8443C259.035 47.8943 258.854 48.1552 258.902 48.4272L259.599 52.3668L255.666 53.0904C255.394 53.1403 255.213 53.4013 255.261 53.6733C255.309 53.9452 255.569 54.1252 255.84 54.0753L260.265 53.2613ZM11.2713 108.803L11.6431 109.135C30.5486 87.8666 68.8695 57.3515 114.353 40.4267C159.827 23.5056 212.391 20.1892 259.892 53.181L260.178 52.7688L260.464 52.3567C212.609 19.1189 159.675 22.4962 114.011 39.4881C68.3572 56.4762 29.9025 87.0931 10.8995 108.471L11.2713 108.803Z" fill="#CCCCCC" fill-opacity="0.5"/>
<rect width="0.913632" height="8.97298" transform="matrix(0.924229 -0.384966 0.35025 0.935581 11.5459 101.243)" fill="#020617"/>
<rect width="0.913632" height="8.97298" transform="matrix(0.924229 -0.384966 0.35025 0.935581 15.3828 97.3438)" fill="#020617"/>
<rect width="0.913632" height="8.97298" transform="matrix(0.924229 -0.384966 0.35025 0.935581 21 93.0577)" fill="#020617"/>
<rect width="0.913632" height="8.97298" transform="matrix(0.924229 -0.384966 0.35025 0.935581 26.6172 88.7721)" fill="#020617"/>
<rect width="0.913632" height="8.97298" transform="matrix(0.924229 -0.384966 0.35025 0.935581 32.0288 83.5079)" fill="#020617"/>
<rect width="0.913632" height="8.97298" transform="matrix(0.924229 -0.384966 0.35025 0.935581 36.7559 79.4149)" fill="#020617"/>
<rect width="0.913632" height="8.97298" transform="matrix(0.924229 -0.384966 0.35025 0.935581 41.688 76.3004)" fill="#020617"/>
<rect width="0.913632" height="8.97298" transform="matrix(0.924229 -0.384966 0.35025 0.935581 46.4146 72.2075)" fill="#020617"/>
<rect width="0.913632" height="8.97298" transform="matrix(0.924229 -0.384966 0.35025 0.935581 52.0322 67.9216)" fill="#020617"/>
<rect width="0.913632" height="8.97298" transform="matrix(0.924229 -0.384966 0.35025 0.935581 57.6499 63.6356)" fill="#020617"/>
<rect width="0.913632" height="8.97298" transform="matrix(0.924229 -0.384966 0.35025 0.935581 62.5815 60.5205)" fill="#020617"/>
<rect width="0.913632" height="8.97298" transform="matrix(0.924229 -0.384966 0.35025 0.935581 67.7188 58.384)" fill="#020617"/>
<rect width="0.913632" height="8.97298" transform="matrix(0.924229 -0.384966 0.35025 0.935581 72.6509 55.2693)" fill="#020617"/>
<rect width="0.913632" height="8.97298" transform="matrix(0.924229 -0.384966 0.35025 0.935581 77.5825 52.154)" fill="#020617"/>
<rect width="0.913632" height="8.97298" transform="matrix(0.924229 -0.384966 0.35025 0.935581 82.7202 50.0175)" fill="#020617"/>
<rect width="0.913632" height="8.97298" transform="matrix(0.924229 -0.384966 0.35025 0.935581 88.748 47.6876)" fill="#020617"/>
<rect width="0.913632" height="8.97298" transform="matrix(0.924229 -0.384966 0.35025 0.935581 94.7754 45.3575)" fill="#020617"/>
<rect width="0.913632" height="8.97298" transform="matrix(0.924229 -0.384966 0.35025 0.935581 100.598 42.0495)" fill="#020617"/>
<rect width="0.914373" height="8.96686" transform="matrix(0.91438 -0.408194 0.370038 0.927786 105.214 33.7568)" fill="#020617"/>
<rect width="0.914373" height="8.96686" transform="matrix(0.91438 -0.408194 0.370038 0.927786 111.128 32.3447)" fill="#020617"/>
<rect width="0.914373" height="8.96686" transform="matrix(0.91438 -0.408194 0.370038 0.927786 117.042 30.9319)" fill="#020617"/>
<rect width="0.914373" height="8.96686" transform="matrix(0.91438 -0.408194 0.370038 0.927786 122.957 29.5194)" fill="#020617"/>
<rect width="0.914373" height="8.96686" transform="matrix(0.91438 -0.408194 0.370038 0.927786 128.871 28.1073)" fill="#020617"/>
<rect width="0.914373" height="8.96686" transform="matrix(0.91438 -0.408194 0.370038 0.927786 134.785 26.6949)" fill="#020617"/>
<rect width="0.914373" height="8.96686" transform="matrix(0.91438 -0.408194 0.370038 0.927786 140.699 25.2821)" fill="#020617"/>
<rect width="0.914373" height="8.96686" transform="matrix(0.91438 -0.408194 0.370038 0.927786 146.613 23.8698)" fill="#020617"/>
<rect width="0.914373" height="8.96686" transform="matrix(0.91438 -0.408194 0.370038 0.927786 152.527 22.4575)" fill="#020617"/>
<rect width="0.914373" height="8.96686" transform="matrix(0.91438 -0.408194 0.370038 0.927786 158.441 21.0445)" fill="#020617"/>
<rect width="0.914373" height="8.96686" transform="matrix(0.91438 -0.408194 0.370038 0.927786 164.355 19.6324)" fill="#020617"/>
<rect width="0.913424" height="8.97469" transform="matrix(0.998057 -0.0397662 0.062255 0.999026 173.142 19.2977)" fill="#020617"/>
<rect width="0.913424" height="8.97469" transform="matrix(0.998057 -0.0397662 0.062255 0.999026 179.207 20.1822)" fill="#020617"/>
<rect width="0.913424" height="8.97469" transform="matrix(0.998057 -0.0397662 0.062255 0.999026 185.272 21.0669)" fill="#020617"/>
<rect width="0.913424" height="8.97469" transform="matrix(0.998057 -0.0397662 0.062255 0.999026 191.337 21.9508)" fill="#020617"/>
<rect width="0.913424" height="8.97469" transform="matrix(0.998057 -0.0397662 0.062255 0.999026 197.403 22.8352)" fill="#020617"/>
<rect width="0.913424" height="8.97469" transform="matrix(0.998057 -0.0397662 0.062255 0.999026 203.468 23.7193)" fill="#020617"/>
<rect width="0.913424" height="8.97469" transform="matrix(0.998057 -0.0397662 0.062255 0.999026 209.534 24.6037)" fill="#020617"/>
<rect width="0.913424" height="8.97469" transform="matrix(0.998057 -0.0397662 0.062255 0.999026 215.599 25.488)" fill="#020617"/>
<rect width="0.913424" height="8.97469" transform="matrix(0.998057 -0.0397662 0.062255 0.999026 224.018 29.4251)" fill="#020617"/>
<rect width="0.944315" height="8.71187" transform="matrix(0.882422 0.463339 -0.387362 0.925353 234.173 33.358)" fill="#020617"/>
<rect width="0.944315" height="8.71187" transform="matrix(0.882422 0.463339 -0.387362 0.925353 239.23 37.2452)" fill="#020617"/>
<rect width="0.944315" height="8.71187" transform="matrix(0.882422 0.463339 -0.387362 0.925353 244.287 41.1327)" fill="#020617"/>
<rect width="0.944315" height="8.71187" transform="matrix(0.882422 0.463339 -0.387362 0.925353 249.345 45.0199)" fill="#020617"/>
<rect width="0.944315" height="8.71187" transform="matrix(0.882422 0.463339 -0.387362 0.925353 255.675 47.0988)" fill="#020617"/>
<rect width="0.944315" height="8.71187" transform="matrix(0.882422 0.463339 -0.387362 0.925353 264.646 54.3558)" fill="#020617"/>
</svg>
