<?xml version="1.0" encoding="UTF-8"?>
<svg version="1.1" xmlns="http://www.w3.org/2000/svg" width="214" height="340">
<path d="M0 0 C1.20059969 1.06879733 2.3908129 2.1495834 3.5625 3.25 C12.32971026 10.98577376 25.16247792 13.27056034 36.5078125 12.87890625 C51.24836181 11.27954016 62.76378707 4.56979447 74.03515625 -4.66796875 C84.48480424 -13.01481283 94.94830022 -15.4216063 108 -14 C118.17854482 -11.78547876 126.88571121 -4.51028871 132.75390625 3.91796875 C138.2918111 13.1709571 141.00647914 22.99701462 138.31640625 33.7265625 C133.93920165 45.45965034 126.39163725 51.81605439 115.6875 57.875 C107.1270007 61.45846482 95.87057003 61.32798501 87.125 58.4375 C78.92369649 54.94681264 73.1097351 49.16604142 67 42.875 C59.44328834 35.10217761 51.22936225 29.86101306 40.03881836 29.61914062 C31.63053148 29.64190931 24.77706138 30.5174417 17 34 C16.36143066 34.27908203 15.72286133 34.55816406 15.06494141 34.84570312 C-0.89669779 41.9164128 -10.35182225 51.33341747 -16.875 67.875 C-20.90424517 78.73528335 -21.81748213 90.221646 -17 101 C-12.05901278 110.54557824 -6.10189481 120.20181941 1.7265625 127.640625 C3 129 3 129 3 131 C3.56203125 131.2578125 4.1240625 131.515625 4.703125 131.78125 C7.2611039 133.13854492 9.43590667 134.76074514 11.75 136.5 C22.15581289 143.81753801 33.24774201 142.67021408 45.41015625 140.7421875 C58.23692849 138.0902977 66.8537724 132.42762609 75.0625 122.3125 C80.63643636 115.58318187 88.38590678 111.32816415 97 110 C107.34529867 109.53677767 117.25179067 112.61778893 125.3125 119.1875 C134.79754586 128.31759612 140.98606251 140.3806513 141.25 153.6875 C141.09567799 164.08880347 137.23197437 172.91488807 129.7734375 180.1640625 C119.37309757 188.97958872 108.56101037 192.94367856 95 192 C81.02277791 189.87459767 70.96282257 182.88381309 62.5 171.75 C57.04163386 165.74579724 49.07299652 163.35310252 41.125 162.6640625 C21.61314541 162.23303046 4.40455883 168.5104313 -10 182 C-17.47038479 189.55105849 -20.53951653 200.5431879 -21 211 C-21.0515625 211.93972656 -21.103125 212.87945312 -21.15625 213.84765625 C-21.5713593 228.08244615 -18.96581874 243.75129425 -9.81640625 255.125 C0.78569834 266.06910797 16.49614472 271.84470792 31.49682617 272.40478516 C45.82960393 272.60727248 60.05107828 269.23084869 72 261 C74.65562093 258.3829149 76.93727072 255.49544058 79.25024414 252.57763672 C82.75057273 248.17947352 85.35400495 245.03981169 91 244 C105.31234575 242.76070501 116.42943233 245.14461155 128 254 C135.06041015 260.4197433 139.53660602 268.67960995 140.23828125 278.25 C140.45659464 289.28057116 139.07286895 299.45100735 131.83203125 308.25 C123.34129005 316.36055876 112.48274366 319.08432859 101 319 C90.49142784 317.6750626 83.98003675 313.70711248 77.375 305.625 C68.90140985 295.78898947 56.29641233 290.73948734 43.5625 289.7265625 C31.7861561 289.3908334 20.31420729 291.32162123 11 299 C8.66745114 301.8241623 6.85193678 304.84742554 5 308 C-0.40383066 316.19531224 -6.89568314 322.13081798 -16.3359375 325.30859375 C-21.4605261 326.27560034 -26.48114287 326.39890702 -31.6875 326.4375 C-32.67371338 326.44765137 -33.65992676 326.45780273 -34.67602539 326.46826172 C-44.44257405 326.35143501 -51.74695176 323.64134537 -59 317 C-68.91249262 306.63506995 -72.63384077 294.08854165 -72.33984375 280.0625 C-71.93718418 272.8447019 -68.89606552 267.4133566 -63.5625 262.625 C-60.48774398 260.25056802 -57.2533256 258.12173408 -54 256 C-44.59479874 249.72986583 -40.05548554 239.1695731 -37.38671875 228.5625 C-35.84154686 218.32378528 -38.22958151 208.43824065 -44.06640625 200.01953125 C-46.61560722 196.60232655 -49.30298646 193.30086296 -52 190 C-74.90370858 161.70504362 -74.90370858 161.70504362 -73 143 C-70.86430698 134.27213451 -62.88058931 129.03358761 -55.9375 124.0625 C-46.05696649 116.71091257 -37.73718436 105.30958591 -35.875 92.875 C-35.41919807 78.21736936 -43.55701117 66.79065603 -51.953125 55.63110352 C-61.39864188 42.9013882 -67.5129974 28.04629632 -66 12 C-64.35760433 5.00808702 -61.71166154 -1.43979119 -56 -6 C-35.68910583 -18.51684206 -18.11951979 -13.88598713 0 0 Z " fill="#FFFFFF" transform="translate(73,14)"/>
<path d="M0 0 C7.47849803 4.43992462 12.90311629 10.78976612 15.75 19.140625 C17.49298336 29.48360321 16.36992447 38.62168164 10.703125 47.4296875 C5.07496482 54.7229024 -3.30862623 59.07828747 -12.39453125 60.3125 C-22.17213795 60.67880803 -31.62087151 57.91055432 -38.89453125 51.25 C-45.80555829 43.22685367 -48.42737882 35.87490616 -48.203125 25.30859375 C-47.24094516 15.77205182 -42.23848676 8.81559677 -35.09765625 2.71484375 C-25.44978941 -4.60643573 -10.85690617 -5.23750247 0 0 Z " fill="#FFFFFF" transform="translate(122.89453125,74.75)"/>
<path d="M0 0 C7.15257668 5.87173297 12.07263086 12.46735374 13.07421875 21.78515625 C13.29890092 29.52506963 12.71710807 35.53232848 8.6875 42.1875 C8.130625 43.239375 7.57375 44.29125 7 45.375 C2.26590938 51.13267778 -4.94319003 55.70874957 -12.3125 57.1875 C-22.48379826 58.17417684 -30.69174639 57.33382404 -39.0078125 51.19921875 C-46.08730453 45.22396236 -50.69549876 38.99474314 -51.55078125 29.55859375 C-51.80908803 19.3486783 -49.69667776 10.53887531 -42.5078125 2.9765625 C-30.22142576 -7.03618684 -13.27065427 -9.5039836 0 0 Z " fill="#FFFFFF" transform="translate(126.3125,202.8125)"/>
</svg>
