<svg width="1440" height="667" viewBox="0 0 1440 667" fill="none" xmlns="http://www.w3.org/2000/svg">
<path d="M1361.34 410V389.199H1364.39V410H1361.34ZM1361.34 410V407.217H1375.11V410H1361.34ZM1361.34 400.976V398.193H1372.48V400.976H1361.34ZM1361.34 391.982V389.199H1375.11V391.982H1361.34ZM1363.04 438.379L1363.31 435.478C1364.81 435.478 1366.11 435.166 1367.2 434.541C1368.3 433.906 1369.19 433.057 1369.9 431.992C1370.61 430.918 1371.14 429.712 1371.48 428.374C1371.83 427.026 1372.01 425.635 1372.01 424.199H1375.02C1375.02 426.045 1374.76 427.817 1374.22 429.516C1373.68 431.216 1372.9 432.734 1371.88 434.072C1370.85 435.4 1369.6 436.45 1368.11 437.222C1366.63 437.993 1364.94 438.379 1363.04 438.379ZM1361.2 445V424.199H1364.24V445H1361.2ZM1372.48 445L1367.2 434.863L1369.84 433.369L1376.02 445H1372.48ZM1367.79 480.293C1362.67 480.293 1360.11 476.777 1360.11 469.746C1360.11 462.519 1362.67 458.906 1367.79 458.906C1372.91 458.906 1375.46 462.519 1375.46 469.746C1375.46 476.777 1372.91 480.293 1367.79 480.293ZM1367.79 477.598C1370.82 477.598 1372.33 474.98 1372.33 469.746C1372.33 464.316 1370.82 461.601 1367.79 461.601C1364.76 461.601 1363.25 464.316 1363.25 469.746C1363.25 474.98 1364.76 477.598 1367.79 477.598ZM1367.73 515.293C1363.28 515.293 1361.05 512.969 1361.05 508.32V494.199H1364.1V508.32C1364.1 509.707 1364.4 510.752 1364.99 511.455C1365.59 512.158 1366.52 512.51 1367.79 512.51C1370.25 512.51 1371.48 511.113 1371.48 508.32V494.199H1374.53V508.32C1374.53 510.644 1373.95 512.388 1372.8 513.55C1371.65 514.712 1369.96 515.293 1367.73 515.293Z" fill="#0D679A"/>
<g filter="url(#filter0_f_678_36)">
<ellipse cx="391.883" cy="254.621" rx="124" ry="17.5" transform="rotate(3.7727 391.883 254.621)" fill="black" fill-opacity="0.5"/>
</g>
<path opacity="0.5" d="M1357 329.5L-0.000107274 284.302L245.192 237.817L1371.5 317.197L1368 386.5L1357 329.5Z" fill="url(#paint0_linear_678_36)" fill-opacity="0.55"/>
<path opacity="0.4" d="M1464.11 140.026L244.5 237.5L507 256.5L1473.44 160.303L1524.16 143.426L1464.11 140.026Z" fill="url(#paint1_linear_678_36)" fill-opacity="0.45"/>
<path opacity="0.6" d="M1236.81 285V215.664H1246.97V285H1236.81ZM1236.81 285V275.723H1282.71V285H1236.81ZM1236.81 254.922V245.644H1273.92V254.922H1236.81ZM1236.81 224.941V215.664H1282.71V224.941H1236.81ZM1301.07 262.93L1301.95 253.262C1306.96 253.262 1311.29 252.22 1314.94 250.137C1318.58 248.021 1321.58 245.189 1323.92 241.641C1326.3 238.06 1328.06 234.04 1329.19 229.58C1330.37 225.088 1330.95 220.449 1330.95 215.664H1341.01C1341.01 221.816 1340.12 227.724 1338.33 233.389C1336.54 239.053 1333.93 244.114 1330.51 248.574C1327.1 253.001 1322.91 256.501 1317.96 259.072C1313.02 261.644 1307.38 262.93 1301.07 262.93ZM1294.92 285V215.664H1305.07V285H1294.92ZM1332.52 285L1314.94 251.211L1323.73 246.23L1344.33 285H1332.52ZM1375.48 285.976C1358.43 285.976 1349.9 274.258 1349.9 250.82C1349.9 226.732 1358.43 214.687 1375.48 214.687C1392.54 214.687 1401.07 226.732 1401.07 250.82C1401.07 274.258 1392.54 285.976 1375.48 285.976ZM1375.48 276.992C1385.58 276.992 1390.62 268.268 1390.62 250.82C1390.62 232.721 1385.58 223.672 1375.48 223.672C1365.39 223.672 1360.35 232.721 1360.35 250.82C1360.35 268.268 1365.39 276.992 1375.48 276.992ZM1433.88 285.976C1419.04 285.976 1411.62 278.229 1411.62 262.734V215.664H1421.77V262.734C1421.77 267.357 1422.77 270.84 1424.75 273.183C1426.74 275.527 1429.85 276.699 1434.08 276.699C1442.28 276.699 1446.38 272.044 1446.38 262.734V215.664H1456.54V262.734C1456.54 270.482 1454.62 276.292 1450.78 280.166C1446.94 284.04 1441.3 285.976 1433.88 285.976Z" fill="#0D679A" fill-opacity="0.06"/>
<defs>
<filter id="filter0_f_678_36" x="248.146" y="215.342" width="287.473" height="78.5575" filterUnits="userSpaceOnUse" color-interpolation-filters="sRGB">
<feFlood flood-opacity="0" result="BackgroundImageFix"/>
<feBlend mode="normal" in="SourceGraphic" in2="BackgroundImageFix" result="shape"/>
<feGaussianBlur stdDeviation="10" result="effect1_foregroundBlur_678_36"/>
</filter>
<linearGradient id="paint0_linear_678_36" x1="1376.97" y1="357.91" x2="50.0213" y2="287.32" gradientUnits="userSpaceOnUse">
<stop stop-color="#61107C"/>
<stop offset="0.416775" stop-color="#2DCBD3"/>
<stop offset="1" stop-color="#002475"/>
</linearGradient>
<linearGradient id="paint1_linear_678_36" x1="1519.62" y1="152.607" x2="393.746" y2="513.111" gradientUnits="userSpaceOnUse">
<stop stop-color="#61107C"/>
<stop offset="0.416775" stop-color="#2DCBD3"/>
<stop offset="1" stop-color="#002475"/>
</linearGradient>
</defs>
</svg>
