<svg width="1440" height="667" viewBox="0 0 1440 667" fill="none" xmlns="http://www.w3.org/2000/svg">
<path d="M1362.34 411V390.199H1365.39V411H1362.34ZM1362.34 411V408.217H1376.11V411H1362.34ZM1362.34 401.976V399.193H1373.48V401.976H1362.34ZM1362.34 392.982V390.199H1376.11V392.982H1362.34ZM1364.04 439.379L1364.31 436.478C1365.81 436.478 1367.11 436.166 1368.2 435.541C1369.3 434.906 1370.2 434.057 1370.9 432.992C1371.61 431.918 1372.14 430.712 1372.48 429.374C1372.83 428.026 1373.01 426.635 1373.01 425.199H1376.03C1376.03 427.045 1375.76 428.817 1375.22 430.516C1374.68 432.216 1373.9 433.734 1372.88 435.072C1371.85 436.4 1370.6 437.45 1369.11 438.222C1367.63 438.993 1365.94 439.379 1364.04 439.379ZM1362.2 446V425.199H1365.24V446H1362.2ZM1373.48 446L1368.2 435.863L1370.84 434.369L1377.02 446H1373.48ZM1368.79 481.293C1363.67 481.293 1361.11 477.777 1361.11 470.746C1361.11 463.519 1363.67 459.906 1368.79 459.906C1373.91 459.906 1376.46 463.519 1376.46 470.746C1376.46 477.777 1373.91 481.293 1368.79 481.293ZM1368.79 478.598C1371.82 478.598 1373.33 475.98 1373.33 470.746C1373.33 465.316 1371.82 462.601 1368.79 462.601C1365.76 462.601 1364.25 465.316 1364.25 470.746C1364.25 475.98 1365.76 478.598 1368.79 478.598ZM1368.73 516.293C1364.28 516.293 1362.05 513.969 1362.05 509.32V495.199H1365.1V509.32C1365.1 510.707 1365.4 511.752 1365.99 512.455C1366.59 513.158 1367.52 513.51 1368.79 513.51C1371.25 513.51 1372.48 512.113 1372.48 509.32V495.199H1375.53V509.32C1375.53 511.644 1374.95 513.388 1373.8 514.55C1372.65 515.712 1370.96 516.293 1368.73 516.293Z" fill="#0D679A"/>
<g opacity="0.5" filter="url(#filter0_d_621_14)">
<path d="M1355 329.5L-1.99962 284.302L243.193 237.817L1369.5 317.197L1366 386.5L1355 329.5Z" fill="url(#paint0_linear_621_14)" fill-opacity="0.55" shape-rendering="crispEdges"/>
</g>
<path opacity="0.4" d="M1462.11 140.026L242.501 237.5L505.001 256.5L1471.44 160.303L1522.16 143.426L1462.11 140.026Z" fill="url(#paint1_linear_621_14)" fill-opacity="0.45"/>
<path opacity="0.6" d="M1234.81 285V215.664H1244.97V285H1234.81ZM1234.81 285V275.723H1280.71V285H1234.81ZM1234.81 254.922V245.644H1271.92V254.922H1234.81ZM1234.81 224.941V215.664H1280.71V224.941H1234.81ZM1299.07 262.93L1299.95 253.262C1304.96 253.262 1309.29 252.22 1312.94 250.137C1316.58 248.021 1319.58 245.189 1321.92 241.641C1324.3 238.06 1326.06 234.04 1327.2 229.58C1328.37 225.088 1328.95 220.449 1328.95 215.664H1339.01C1339.01 221.816 1338.12 227.724 1336.33 233.389C1334.54 239.053 1331.93 244.114 1328.51 248.574C1325.1 253.001 1320.91 256.501 1315.96 259.072C1311.02 261.644 1305.39 262.93 1299.07 262.93ZM1292.92 285V215.664H1303.07V285H1292.92ZM1330.52 285L1312.94 251.211L1321.73 246.23L1342.33 285H1330.52ZM1373.48 285.976C1356.43 285.976 1347.9 274.258 1347.9 250.82C1347.9 226.732 1356.43 214.687 1373.48 214.687C1390.54 214.687 1399.07 226.732 1399.07 250.82C1399.07 274.258 1390.54 285.976 1373.48 285.976ZM1373.48 276.992C1383.58 276.992 1388.62 268.268 1388.62 250.82C1388.62 232.721 1383.58 223.672 1373.48 223.672C1363.39 223.672 1358.35 232.721 1358.35 250.82C1358.35 268.268 1363.39 276.992 1373.48 276.992ZM1431.88 285.976C1417.04 285.976 1409.62 278.229 1409.62 262.734V215.664H1419.77V262.734C1419.77 267.357 1420.77 270.84 1422.75 273.183C1424.74 275.527 1427.85 276.699 1432.08 276.699C1440.28 276.699 1444.38 272.044 1444.38 262.734V215.664H1454.54V262.734C1454.54 270.482 1452.62 276.292 1448.78 280.166C1444.94 284.04 1439.3 285.976 1431.88 285.976Z" fill="#0D679A" fill-opacity="0.06"/>
<defs>
<filter id="filter0_d_621_14" x="-11.9995" y="223.817" width="1391.5" height="168.683" filterUnits="userSpaceOnUse" color-interpolation-filters="sRGB">
<feFlood flood-opacity="0" result="BackgroundImageFix"/>
<feColorMatrix in="SourceAlpha" type="matrix" values="0 0 0 0 0 0 0 0 0 0 0 0 0 0 0 0 0 0 127 0" result="hardAlpha"/>
<feOffset dy="-4"/>
<feGaussianBlur stdDeviation="5"/>
<feComposite in2="hardAlpha" operator="out"/>
<feColorMatrix type="matrix" values="0 0 0 0 0 0 0 0 0 0 0 0 0 0 0 0 0 0 0.8 0"/>
<feBlend mode="normal" in2="BackgroundImageFix" result="effect1_dropShadow_621_14"/>
<feBlend mode="normal" in="SourceGraphic" in2="effect1_dropShadow_621_14" result="shape"/>
</filter>
<linearGradient id="paint0_linear_621_14" x1="1374.97" y1="357.91" x2="48.0218" y2="287.32" gradientUnits="userSpaceOnUse">
<stop stop-color="#61107C"/>
<stop offset="0.416775" stop-color="#2DCBD3"/>
<stop offset="1" stop-color="#002475"/>
</linearGradient>
<linearGradient id="paint1_linear_621_14" x1="1517.62" y1="152.607" x2="391.747" y2="513.111" gradientUnits="userSpaceOnUse">
<stop stop-color="#61107C"/>
<stop offset="0.416775" stop-color="#2DCBD3"/>
<stop offset="1" stop-color="#002475"/>
</linearGradient>
</defs>
</svg>
